<svg id="Layer_1" data-name="Layer 1" xmlns="http://www.w3.org/2000/svg" viewBox="0 0 92.43923 75.31658"><defs><style>.cls-1{fill:#d7f0fc;}.cls-2{fill:#fff;}.cls-2,.cls-3{stroke:#4770b7;stroke-miterlimit:10;stroke-width:2px;}.cls-3{fill:none;}.cls-4{fill:#5e82c0;}</style></defs><path class="cls-1" d="M35.03158,38.0853V34.73311c0-.97364.48686-1.76293,1.08744-1.76293l28.92991.02046,4.38347-5.50753h9.12508c.84142,0,1.52353,1.10581,1.52353,2.46989v8.1323Z" transform="translate(-2.34337 -11.06614)"/><path class="cls-1" d="M31.4559,42.55255V39.01842c0-1.02648.58166-1.85861,1.29917-1.85861H69.0813l4.328-5.78489H83.45613c1.00524,0,1.82015,1.16583,1.82015,2.604v8.57368Z" transform="translate(-2.34337 -11.06614)"/><path class="cls-1" d="M28.50238,48.33227V44.54453c0-1.10014.66609-1.992,1.48775-1.992H71.58931l4.95619-6.2H88.05071c1.15116,0,2.08436,1.24949,2.08436,2.7908v9.18893Z" transform="translate(-2.34337 -11.06614)"/><polygon class="cls-1" points="26.37 35.452 21.3 39.65 21.142 75.317 92.439 75.317 92.439 39.747 87.739 35.452 87.448 35.452 87.422 36.815 26.344 36.816 26.37 35.452 26.37 35.452"/><path class="cls-1" d="M58.00793,78.84315a11.0728,11.0728,0,1,1,0-22.14559" transform="translate(-2.34337 -11.06614)"/><path class="cls-1" d="M59.22222,56.69756a11.0728,11.0728,0,0,1,0,22.14559" transform="translate(-2.34337 -11.06614)"/><path class="cls-2" d="M14.89425,23.36811V19.79467c0-1.0379.48687-1.87929,1.08744-1.87929l28.92991.0218,4.38348-5.871h9.12507c.84142,0,1.52353,1.1788,1.52353,2.63291v8.66906Z" transform="translate(-2.34337 -11.06614)"/><path class="cls-2" d="M11.31857,28.26578V24.79809c0-1.00718.58166-1.82366,1.29917-1.82366H48.944l4.328-5.67613H63.3188c1.00524,0,1.82015,1.1439,1.82015,2.555v8.4125Z" transform="translate(-2.34337 -11.06614)"/><path class="cls-2" d="M8.94191,33.80508V30.1598a1.73471,1.73471,0,0,1,1.45524-1.91706h40.6902l4.8479-5.96682H67.18906c1.126,0,2.03881,1.20249,2.03881,2.68583v8.84333Z" transform="translate(-2.34337 -11.06614)"/><polygon class="cls-3" points="6.233 21.375 1.163 25.574 1.004 61.24 72.302 61.24 72.302 25.67 67.311 21.375 67.311 21.375 67.285 22.739 6.405 22.739 6.233 21.375 6.233 21.375"/><path class="cls-4" d="M37.8706,63.49768a9.79971,9.79971,0,0,1-3.41934-18.98146c.20756-.06938.40721-.16407.62046-.21526l.552,1.85566a9.44774,9.44774,0,0,1,2.24684-3.53549A12.06,12.06,0,0,0,33.79607,40.013l.552,1.85557c-.268.06748-.52193.18034-.78314.26972A12.33741,12.33741,0,0,0,37.8706,66.03547Z" transform="translate(-2.34337 -11.06614)"/><path class="cls-4" d="M39.08489,43.88977a9.79972,9.79972,0,0,1,3.41933,18.98147c-.20755.06937-.4072.16406-.62045.21526l-.552-1.85567a9.44766,9.44766,0,0,1-2.24684,3.53549,12.06,12.06,0,0,0,4.07453,2.60817l-.552-1.85557c.268-.06748.52193-.18034.78315-.26972A12.3374,12.3374,0,0,0,39.08489,41.352Z" transform="translate(-2.34337 -11.06614)"/></svg>