<svg id="Layer_1" data-name="Layer 1" xmlns="http://www.w3.org/2000/svg" viewBox="0 0 91.01281 80.22915"><defs><style>.cls-1{fill:none;stroke:#fff;stroke-miterlimit:10;}.cls-2{fill:#d7f0fc;}.cls-3{fill:#4770b7;}</style></defs><path class="cls-1" d="M40.68061,36.35057" transform="translate(-3.58696 -8.26498)"/><path class="cls-2" d="M65.33035,44.8886h-10.777l-3.34786-6.36024-22.77827.03753V78.73143a12.37445,12.37445,0,0,0,.79609,4.49591,10.45374,10.45374,0,0,0,1.0656,2.05778,7.4794,7.4794,0,0,0,6.21718,3.209H76.189s4.38157-.29936,5.76952-4.21828,12.64123-29.909,12.64123-29.909h-44.047L38.60417,81.07076a2.52454,2.52454,0,0,1-1.03806,1.33272,2.05269,2.05269,0,0,1-2.27218-.15008,3.40484,3.40484,0,0,1-1.4905-2.06879L33.59261,41.623l14.34753-.10422,3.69774,6.946,18.36058.1063Z" transform="translate(-3.58696 -8.26498)"/><polygon class="cls-2" points="71.592 11.893 75.813 11.893 75.9 31.881 84.859 23.748 87.739 26.264 73.682 39.728 60.537 26.68 63.09 24.127 71.774 31.994 71.592 11.893"/><path class="cls-3" d="M40.49011,32.9956h-10.777l-3.34785-6.36024L3.587,26.67289V66.83842a12.37425,12.37425,0,0,0,.79609,4.49592,10.4532,10.4532,0,0,0,1.0656,2.05778,7.47939,7.47939,0,0,0,6.21718,3.209h39.683s4.38157-.29936,5.76952-4.21828,12.64124-29.909,12.64124-29.909h-44.047L13.76394,69.17776a2.52463,2.52463,0,0,1-1.03806,1.33272,2.05269,2.05269,0,0,1-2.27218-.15008,3.40482,3.40482,0,0,1-1.49051-2.06879L8.75237,29.73l14.34754-.10422,3.69773,6.946,18.36059.1063Z" transform="translate(-3.58696 -8.26498)"/><polygon class="cls-3" points="46.752 0 50.973 0 51.06 19.988 60.019 11.855 62.899 14.371 48.842 27.835 35.696 14.787 38.25 12.234 46.934 20.101 46.752 0"/><path class="cls-1" d="M96.95715,59.219" transform="translate(-3.58696 -8.26498)"/></svg>