<svg id="Layer_1" data-name="Layer 1" xmlns="http://www.w3.org/2000/svg" viewBox="0 0 97 97"><defs><style>.cls-1,.cls-4{fill:#d7f0fc;}.cls-1{fill-rule:evenodd;}.cls-2,.cls-3,.cls-5,.cls-6{fill:none;stroke:#4770b7;}.cls-2,.cls-3,.cls-6{stroke-linecap:round;}.cls-2,.cls-3{stroke-linejoin:round;}.cls-2,.cls-5,.cls-6{stroke-width:2px;}.cls-3{stroke-width:1.5px;}.cls-4{fill-opacity:0.01;}.cls-5{stroke-linecap:square;}</style></defs><g id="Page-1"><g id="Artboard"><g id="Group-38"><g id="Group-37"><path id="Rectangle" class="cls-1" d="M24.47,54.24,61.24,17.47a15,15,0,0,1,21.22,0h0a15,15,0,0,1,0,21.22L45.69,75.46a15,15,0,0,1-21.22,0h0A15,15,0,0,1,24.47,54.24Z"/><path id="Stroke-3" class="cls-2" d="M28.23,64.05,16.7,68,12,63.3,16,51.77,59.18,8.54A8.68,8.68,0,0,1,71.46,20.82Z"/><path id="Stroke-11" class="cls-3" d="M39,25a19.86,19.86,0,0,1,5.45-10.14A20.43,20.43,0,0,1,59,9"/><path id="Stroke-15" class="cls-3" d="M39.71,26.71a1,1,0,1,1,0-1.42A1,1,0,0,1,39.71,26.71Z"/><rect id="Rectangle-Copy-7" class="cls-4" width="97" height="97"/><path id="Line" class="cls-5" d="M59,9,71,21"/><path id="Line-Copy" class="cls-5" d="M17,51,29,63"/><path id="Line-8" class="cls-6" d="M23,71H83"/><path id="Line-8-Copy" class="cls-6" d="M59,61H83"/></g><polygon id="Fill-7" class="cls-1" points="12.06 64 10 70 16 67.94 12.06 64"/><polygon id="Stroke-9" class="cls-3" points="12.06 64 10 70 16 67.94 12.06 64"/></g></g></g></svg>