<svg id="Layer_1" data-name="Layer 1" xmlns="http://www.w3.org/2000/svg" viewBox="0 0 72.04 48.38"><defs><style>.cls-1{fill:#d7f0fc;}.cls-2{fill:#4770b7;}</style></defs><path class="cls-1" d="M45.29,69l-13-.28s-5.87-.9-6.31-8.28c0,0-.06-6.35,5.73-8.35,0,0-.9-14.37,14.54-16.87a14.18,14.18,0,0,1,14.7,10.5,10.4,10.4,0,0,1,9.92-1.15s5,2.14,5.44,7.52c0,0,8.78.58,8.49,9.28,0,0-.48,5.44-7,7.54L64.63,69Z" transform="translate(-12.76 -27.18)"/><polygon class="cls-1" points="39.4 29.42 44.75 29.42 44.88 41.18 47.93 41.18 42.07 48.38 36.22 41.16 39.53 41.1 39.4 29.42"/><path class="cls-2" d="M33.91,62.36l1.59,2H22.39s-7.7.76-9.55-8.61c0,0-1.22-7.67,5.8-11.23,0,0-.09-15.34,16-17.21a15.72,15.72,0,0,1,15.82,8.79s12.35-3.83,15.34,7.58c0,0,8.89,1.87,9,11.23a10.88,10.88,0,0,1-8.52,9.45h-15l1.59-2,12.94-.1s6-1.39,6.83-7.39c0,0,.73-7.94-8.32-9.1,0,0,0-4.65-5.34-7.37a10.05,10.05,0,0,0-9.73,1.12S47.09,29.14,34.83,29.23c0,0-14.16,1.41-14.25,16.54,0,0-6.24,1.8-5.59,9.94,0,0,1.78,6.65,7.21,6.55Z" transform="translate(-12.76 -27.18)"/><polygon class="cls-2" points="28.39 24.05 33.63 24.05 33.76 35.58 36.75 35.58 31.01 42.64 25.27 35.56 28.52 35.5 28.39 24.05"/></svg>