<svg id="Layer_1" data-name="Layer 1" xmlns="http://www.w3.org/2000/svg" viewBox="0 0 85.41 83.37"><defs><style>.cls-1{fill:#d7f0f7;}.cls-2,.cls-3,.cls-5{fill:none;stroke:#4770b7;stroke-miterlimit:10;}.cls-2{stroke-width:2px;}.cls-4{fill:#4770b7;}.cls-5{stroke-width:0.25px;}</style></defs><polygon class="cls-1" points="80.18 36.28 54.21 70.61 53.93 73.77 56.95 72.71 82.96 38.39 80.18 36.28"/><rect class="cls-1" x="91.97" y="43.37" width="3.37" height="3.18" transform="translate(35.76 -57.25) rotate(37.25)"/><rect class="cls-1" x="19.77" y="16.85" width="51.59" height="66.52"/><polyline class="cls-2" points="52.59 43.39 52.59 67.52 1 67.52 1 1 52.59 1 52.59 27.61"/><line class="cls-3" x1="4.95" y1="9.38" x2="34.88" y2="9.38"/><line class="cls-3" x1="4.95" y1="17.09" x2="42.97" y2="17.09"/><line class="cls-3" x1="4.9" y1="24.79" x2="35.88" y2="24.79"/><line class="cls-3" x1="4.64" y1="33.11" x2="45.27" y2="33.11"/><line class="cls-3" x1="4.67" y1="41.43" x2="35.65" y2="41.43"/><ellipse class="cls-4" cx="11.92" cy="54.88" rx="4.63" ry="4.77"/><ellipse class="cls-4" cx="24.96" cy="54.88" rx="4.63" ry="4.77"/><polygon class="cls-4" points="61.42 20.43 35.45 54.76 35.16 57.92 38.18 56.87 64.2 22.55 61.42 20.43"/><rect class="cls-4" x="73.21" y="27.52" width="3.37" height="3.18" transform="translate(22.34 -49.13) rotate(37.25)"/><path class="cls-5" d="M58.48,40.51" transform="translate(-10.55 -9.74)"/><path class="cls-5" d="M66.88,33.33" transform="translate(-10.55 -9.74)"/></svg>