<svg id="Layer_1" data-name="Layer 1" xmlns="http://www.w3.org/2000/svg" viewBox="0 0 75.72 87.6"><defs><style>.cls-1{fill:#d7f0f7;}.cls-2,.cls-3,.cls-4{fill:none;stroke:#4770b7;stroke-miterlimit:10;}.cls-2{stroke-width:1.5px;}.cls-3{stroke-width:2px;}.cls-5{fill:#4770b7;}</style></defs><rect class="cls-1" x="18.98" y="26.28" width="45.74" height="61.32" rx="5.18"/><path class="cls-1" d="M71.93,61.72l11.24-4.87,11,4.87s.53,17.63-10.82,22.45C83.39,84.17,71.93,81.71,71.93,61.72Z" transform="translate(-18.5 -6.87)"/><path class="cls-1" d="M52,37.17s-.68-.25-.79-.76V30.48s-.16-.51.79-1h4.39A5.36,5.36,0,0,1,61.23,25s4.55-.05,5.13,4.45l4.6.05s.74.36.53.82l0,6.08s.12.56-.72.76Z" transform="translate(-18.5 -6.87)"/><path class="cls-2" d="M50.85,15.84h8.84a3.24,3.24,0,0,1,3.13,3.35V37.61" transform="translate(-18.5 -6.87)"/><path class="cls-2" d="M62.82,68.63v3.23a3.24,3.24,0,0,1-3.13,3.35H22.37a3.24,3.24,0,0,1-3.12-3.35V19.19a3.24,3.24,0,0,1,3.12-3.35h9.81" transform="translate(-18.5 -6.87)"/><path class="cls-3" d="M52.14,44.63l10.77-4.58L73.5,44.63S74,61.22,63.12,65.75C63.12,65.75,52.14,63.44,52.14,44.63Z" transform="translate(-18.5 -6.87)"/><path class="cls-4" d="M56.84,53.33a.54.54,0,0,1,.74-.49l4.26,4.63,7.48-10.91s.75-.45.67.6L61.92,58.74Z" transform="translate(-18.5 -6.87)"/><path class="cls-4" d="M26.3,28.17a.16.16,0,0,1,.23-.14l1.29,1.41,2.28-3.33c.47-.69,2.2-2.78.2.19l-2.45,3.52Z" transform="translate(-18.5 -6.87)"/><path class="cls-4" d="M26,40.53a.17.17,0,0,1,.23-.14l1.3,1.41,2.27-3.32c.48-.7,2.2-2.79.21.18l-2.46,3.52Z" transform="translate(-18.5 -6.87)"/><path class="cls-4" d="M26,52.55s0-.22.23-.15l1.3,1.41,2.27-3.32c.48-.7,2.2-2.79.21.18l-2.46,3.52Z" transform="translate(-18.5 -6.87)"/><path class="cls-4" d="M26,65.9s0-.22.23-.15l1.3,1.41,2.27-3.32c.48-.69,2.2-2.78.21.18l-2.46,3.53Z" transform="translate(-18.5 -6.87)"/><path class="cls-4" d="M31.48,27.71a3.58,3.58,0,0,1,.14,1,3.88,3.88,0,1,1-3.88-3.88" transform="translate(-18.5 -6.87)"/><path class="cls-4" d="M31.11,40.38a3.89,3.89,0,1,1-3.74-2.85" transform="translate(-18.5 -6.87)"/><path class="cls-4" d="M31.11,52.3a4,4,0,0,1,.14,1,3.89,3.89,0,1,1-3.88-3.88" transform="translate(-18.5 -6.87)"/><path class="cls-4" d="M31.11,65.51a3.89,3.89,0,1,1-3.74-2.85" transform="translate(-18.5 -6.87)"/><rect class="cls-5" x="15.44" y="18" width="21.54" height="1.37" rx="0.68"/><rect class="cls-5" x="15.63" y="22.41" width="16.37" height="1.37" rx="0.68"/><rect class="cls-5" x="15.63" y="30.86" width="21.54" height="1.37" rx="0.68"/><rect class="cls-5" x="15.54" y="42.79" width="16.04" height="1.37" rx="0.68"/><rect class="cls-5" x="15.54" y="47.72" width="16.82" height="1.37" rx="0.68"/><rect class="cls-5" x="15.54" y="56.48" width="16.82" height="1.37" rx="0.68"/><rect class="cls-5" x="15.41" y="60.92" width="16.82" height="1.37" rx="0.68"/><rect class="cls-5" x="15.66" y="35.79" width="16.32" height="1.37" rx="0.68"/><path class="cls-2" d="M32.38,19.21s-.63-.25-.73-.73V12.83s-.14-.48.73-1h4S37,7.92,40.9,7.62a4.74,4.74,0,0,1,4.72,4.24l4.23.05s.68.34.49.78l0,5.79s.12.53-.66.73Z" transform="translate(-18.5 -6.87)"/><circle class="cls-2" cx="22.52" cy="5.31" r="2.11"/></svg>