<svg id="Layer_1" data-name="Layer 1" xmlns="http://www.w3.org/2000/svg" viewBox="0 0 91.60654 84.36424"><defs><style>.cls-1{fill:#d7f0fc;}.cls-2,.cls-4{fill:none;stroke:#4770b7;stroke-miterlimit:10;}.cls-3{fill:#4770b7;}.cls-4{stroke-width:0.75px;}</style></defs><polyline class="cls-1" points="67.024 80.738 24.779 80.738 24.779 11.45 83.61 11.45 83.61 54.253"/><rect class="cls-1" x="24.69614" y="4.76459" width="59.0446" height="5.31694"/><circle class="cls-1" cx="73.6514" cy="66.4091" r="17.95514"/><polyline class="cls-2" points="47.63 76.348 12.618 76.348 12.618 7.061 71.449 7.061 71.449 45.061"/><rect class="cls-2" x="22.55327" y="13.78551" width="13.76497" height="17.71575"/><rect class="cls-3" x="53.81475" y="10.8723" width="1.94954" height="21.85853" transform="translate(73.8737 -40.09571) rotate(90)"/><rect class="cls-3" x="53.81475" y="18.67048" width="1.94954" height="21.85853" transform="translate(81.67188 -32.29753) rotate(90)"/><rect class="cls-3" x="54.05106" y="26.70496" width="1.94954" height="21.85853" transform="translate(89.94267 -24.49935) rotate(90)"/><rect class="cls-3" x="44.06703" y="24.74311" width="1.94954" height="41.35398" transform="translate(87.74451 -6.72945) rotate(90)"/><rect class="cls-3" x="37.6079" y="39.22442" width="1.94954" height="28.43573" transform="translate(89.30757 7.75186) rotate(90)"/><rect class="cls-3" x="32.24053" y="52.43428" width="1.94954" height="17.70098" transform="translate(91.78268 20.96172) rotate(90)"/><rect class="cls-3" x="32.24053" y="60.27677" width="1.94954" height="17.70098" transform="translate(99.62517 28.80421) rotate(90)"/><rect class="cls-3" x="30.30206" y="62.23" width="1.94954" height="29.9521" transform="translate(105.7655 38.82148) rotate(90)"/><rect class="cls-4" x="12.53536" y="0.375" width="59.0446" height="5.31694"/><circle class="cls-2" cx="61.49063" cy="62.01951" r="17.95514"/><path class="cls-1" d="M3.32933,44.80178h6.73479a0,0,0,0,1,0,0V76.15363a3.263,3.263,0,0,1-3.263,3.263H6.59236a3.263,3.263,0,0,1-3.263-3.263V44.80178a0,0,0,0,1,0,0Z"/><path class="cls-2" d="M.5,42.46929H7.23479a0,0,0,0,1,0,0V73.82114a3.263,3.263,0,0,1-3.263,3.263H3.763A3.263,3.263,0,0,1,.5,73.82114V42.46929a0,0,0,0,1,0,0Z"/><polygon class="cls-3" points="50.588 66.487 53.481 63.582 57.019 67.005 71.811 52.331 74.565 54.859 56.734 72.639 50.588 66.487"/></svg>