<svg id="Layer_1" data-name="Layer 1" xmlns="http://www.w3.org/2000/svg" viewBox="0 0 94.13065 55.83947"><defs><style>.cls-1{fill:#d7f0fc;}.cls-2{fill:#4770b7;}</style></defs><path class="cls-1" d="M60.5305,74.81315c-3.01419,0-6.02919.04-9.04219-.01992a20.048,20.048,0,0,1-3.54206-.43263,3.6676,3.6676,0,0,1-3.1131-3.23807c-.43306-2.978-.88747-5.96544-1.06288-8.9647a7.42434,7.42434,0,0,1,3.26526-6.50052,18.09238,18.09238,0,0,1,8.25252-3.22949A28.69043,28.69043,0,0,1,70.73012,53.833a11.24242,11.24242,0,0,1,4.81528,3.37087,7.45648,7.45648,0,0,1,1.652,5.62519q-.377,3.51882-.82247,7.03022c-.4349,3.41589-1.77469,4.711-5.262,4.80879-3.52482.09882-7.05458.02178-10.58218.02178Z" transform="translate(-1.32596 -18.98675)"/><path class="cls-1" d="M60.36819,49.60334a9.78771,9.78771,0,1,1,9.82022-9.76764A9.80383,9.80383,0,0,1,60.36819,49.60334Z" transform="translate(-1.32596 -18.98675)"/><path class="cls-1" d="M48.03078,52.69442A44.46871,44.46871,0,0,0,44.234,55.98321a8.81363,8.81363,0,0,0-2.11877,7.41187c.21058,1.74551.425,3.49054.6485,5.3244-.27581.02253-.50386.057-.732.05744-3.55457.00716-7.1094.03388-10.66355-.00319a12.67048,12.67048,0,0,1-2.64915-.36438A2.75673,2.75673,0,0,1,26.4454,66.032c-.34422-2.32951-.659-4.66741-.86282-7.01253a6.00059,6.00059,0,0,1,2.90178-5.6484,15.25766,15.25766,0,0,1,6.67228-2.39158A22.63223,22.63223,0,0,1,46.826,52.13691c.27757.10794.54855.23359.819.35874C47.81646,52.575,47.9813,52.6687,48.03078,52.69442Z" transform="translate(-1.32596 -18.98675)"/><path class="cls-1" d="M78.2381,68.72175c.21428-1.781.40323-3.47373.62389-5.16229.60933-4.6627-1.418-7.94969-5.32487-10.26593-.22643-.13425-.45081-.272-.77979-.47066a15.04143,15.04143,0,0,1,4.86244-1.69112,22.27249,22.27249,0,0,1,12.61584,1.04709,11.5061,11.5061,0,0,1,2.86451,1.66384,6.08326,6.08326,0,0,1,2.26527,6.00119c-.27353,1.81989-.4446,3.655-.67044,5.48227a3.21567,3.21567,0,0,1-2.97852,3.22406,10.16051,10.16051,0,0,1-1.93435.2296c-3.68939.0177-7.37893.003-11.06841-.00342C78.58178,68.77615,78.44994,68.747,78.2381,68.72175Z" transform="translate(-1.32596 -18.98675)"/><path class="cls-1" d="M46.64675,40.70725a7.73779,7.73779,0,1,1-7.78913-7.72039A7.71216,7.71216,0,0,1,46.64675,40.70725Z" transform="translate(-1.32596 -18.98675)"/><path class="cls-1" d="M82.24977,48.4685a7.7408,7.7408,0,1,1,7.81233-7.72435A7.74015,7.74015,0,0,1,82.24977,48.4685Z" transform="translate(-1.32596 -18.98675)"/><path class="cls-2" d="M37.42642,65.214c-3.11138,0-6.22358.04127-9.33372-.02056a20.69425,20.69425,0,0,1-3.65626-.44658A3.78584,3.78584,0,0,1,21.223,61.40436c-.447-3.074-.91608-6.15778-1.09715-9.25374a7.66373,7.66373,0,0,1,3.37053-6.7101,18.67571,18.67571,0,0,1,8.51859-3.33361,29.61533,29.61533,0,0,1,15.93994,1.45048,11.60465,11.60465,0,0,1,4.97053,3.47955,7.69684,7.69684,0,0,1,1.70528,5.80654q-.38918,3.63228-.849,7.25689c-.44892,3.526-1.8319,4.86291-5.4316,4.96383-3.63847.102-7.282.02248-10.92336.02248Z" transform="translate(-1.32596 -18.98675)"/><path class="cls-2" d="M37.25888,39.19137A10.10328,10.10328,0,1,1,47.39571,29.1088,10.11991,10.11991,0,0,1,37.25888,39.19137Z" transform="translate(-1.32596 -18.98675)"/><path class="cls-2" d="M24.52369,42.38211a45.90044,45.90044,0,0,0-3.91922,3.39482,9.09775,9.09775,0,0,0-2.18708,7.65084c.21737,1.80178.4387,3.60307.6694,5.496-.2847.02327-.5201.05882-.75557.0593-3.66917.00739-7.33861.035-11.00734-.00329a13.07954,13.07954,0,0,1-2.73457-.37613,2.8456,2.8456,0,0,1-2.34693-2.45405c-.35532-2.40462-.68021-4.81789-.89064-7.23862a6.194,6.194,0,0,1,2.99533-5.83051,15.74952,15.74952,0,0,1,6.88741-2.46869A23.36188,23.36188,0,0,1,23.28,41.80662c.28651.11142.56624.24112.84542.37031C24.30246,42.25884,24.47262,42.35555,24.52369,42.38211Z" transform="translate(-1.32596 -18.98675)"/><path class="cls-2" d="M55.70493,58.92617c.22118-1.83845.41622-3.58573.644-5.32873.629-4.813-1.46376-8.206-5.49655-10.59691-.23373-.13858-.46534-.28073-.80493-.48584a15.52666,15.52666,0,0,1,5.01921-1.74564A22.99061,22.99061,0,0,1,68.08925,41.8499a11.87734,11.87734,0,0,1,2.95687,1.71749,6.2794,6.2794,0,0,1,2.3383,6.19467c-.28235,1.87857-.45893,3.77289-.69206,5.659a3.31935,3.31935,0,0,1-3.07455,3.328,10.48738,10.48738,0,0,1-1.99672.237c-3.80833.01827-7.61683.00313-11.42526-.00353C56.05969,58.98233,55.9236,58.95219,55.70493,58.92617Z" transform="translate(-1.32596 -18.98675)"/><path class="cls-2" d="M23.095,30.00846a7.98726,7.98726,0,1,1-8.04026-7.96931A7.96082,7.96082,0,0,1,23.095,30.00846Z" transform="translate(-1.32596 -18.98675)"/><path class="cls-2" d="M59.84594,38.01994a7.99037,7.99037,0,1,1,8.06421-7.97339A7.98971,7.98971,0,0,1,59.84594,38.01994Z" transform="translate(-1.32596 -18.98675)"/></svg>