<svg id="Layer_1" data-name="Layer 1" xmlns="http://www.w3.org/2000/svg" viewBox="0 0 97 97"><defs><style>.cls-1,.cls-6{fill:#d7f0fc;}.cls-2,.cls-3,.cls-4,.cls-5{fill:none;stroke:#4770b7;}.cls-2,.cls-4{stroke-width:2px;}.cls-3,.cls-4,.cls-5{stroke-linecap:round;stroke-linejoin:round;}.cls-3{stroke-width:2px;}.cls-5{stroke-width:2px;}.cls-6{fill-opacity:0.01;}</style></defs><g id="Page-1"><g id="Artboard"><g id="Group-28"><g id="Group-10"><ellipse id="Oval-Copy-2" class="cls-1" cx="55.5" cy="55" rx="32.5" ry="33"/><g id="Group-2-Copy"><circle id="Oval" class="cls-2" cx="45" cy="42.5" r="14.5"/><path id="Line-4" class="cls-3" d="M59.59,43l11.82-.2" transform="translate(0.5)"/><path id="Line-4-Copy" class="cls-3" d="M17.59,43l11.82-.2" transform="translate(0.5)"/><path id="Line-4-2" data-name="Line-4" class="cls-4" d="M45,57V68" transform="translate(0.5)"/><path id="Line-4-Copy-2" data-name="Line-4-Copy" class="cls-4" d="M45,17V28" transform="translate(0.5)"/><path id="Line-4-3" data-name="Line-4" class="cls-5" d="M34,53l-8.36,8.36" transform="translate(0.5)"/><path id="Line-4-Copy-3" data-name="Line-4-Copy" class="cls-5" d="M63.3,23.7l-8.36,8.36" transform="translate(0.5)"/><path id="Line-4-4" data-name="Line-4" class="cls-5" d="M34,32.06,25.67,23.7" transform="translate(0.5)"/><path id="Line-4-Copy-4" data-name="Line-4-Copy" class="cls-5" d="M63.3,61.33,54.94,53" transform="translate(0.5)"/><circle id="Oval-2" data-name="Oval" class="cls-2" cx="45" cy="13.5" r="3.5"/><circle id="Oval-Copy-3" class="cls-2" cx="45" cy="72.5" r="3.5"/><circle id="Oval-Copy-4" class="cls-2" cx="14" cy="42.5" r="3.5"/><circle id="Oval-Copy-5" class="cls-2" cx="23" cy="20.5" r="3.5"/><circle id="Oval-Copy-6" class="cls-2" cx="67" cy="64.5" r="3.5"/><circle id="Oval-Copy-7" class="cls-2" cx="76" cy="42.5" r="3.5"/><circle id="Oval-Copy-8" class="cls-2" cx="23" cy="64.5" r="3.5"/><circle id="Oval-Copy-9" class="cls-2" cx="67" cy="20.5" r="3.5"/></g></g><rect id="Rectangle" class="cls-6" width="97" height="97"/></g></g></g></svg>